<svg width="1184" height="72" viewBox="0 0 1184 72" fill="none" xmlns="http://www.w3.org/2000/svg">
<path d="M58.2656 48H52.5879L52.623 43.2539H58.2656C59.4375 43.2539 60.4277 42.9727 61.2363 42.4102C62.0566 41.8477 62.6777 41.0098 63.0996 39.8965C63.5332 38.7715 63.75 37.3887 63.75 35.748V34.6406C63.75 33.4102 63.627 32.332 63.3809 31.4062C63.1465 30.4688 62.7949 29.6895 62.3262 29.0684C61.8574 28.4355 61.2715 27.9609 60.5684 27.6445C59.877 27.3281 59.0801 27.1699 58.1777 27.1699H52.4824V22.4062H58.1777C59.9121 22.4062 61.5 22.7051 62.9414 23.3027C64.3945 23.8887 65.6484 24.7324 66.7031 25.834C67.7695 26.9238 68.5898 28.2188 69.1641 29.7188C69.75 31.207 70.043 32.8594 70.043 34.6758V35.748C70.043 37.5527 69.75 39.2051 69.1641 40.7051C68.5898 42.2051 67.7754 43.5 66.7207 44.5898C65.666 45.6797 64.418 46.5234 62.9766 47.1211C61.5469 47.707 59.9766 48 58.2656 48ZM56.1211 22.4062V48H49.9512V22.4062H56.1211ZM82.1895 48.3516C80.6426 48.3516 79.2598 48.1113 78.041 47.6309C76.8223 47.1387 75.791 46.4648 74.9473 45.6094C74.1152 44.7539 73.4766 43.7695 73.0312 42.6562C72.5977 41.543 72.3809 40.3652 72.3809 39.123V38.4551C72.3809 37.0605 72.5742 35.7715 72.9609 34.5879C73.3477 33.3926 73.9219 32.3496 74.6836 31.459C75.4453 30.5684 76.4004 29.877 77.5488 29.3848C78.6973 28.8809 80.0332 28.6289 81.5566 28.6289C82.9043 28.6289 84.1113 28.8457 85.1777 29.2793C86.2441 29.7129 87.1465 30.334 87.8848 31.1426C88.6348 31.9512 89.2031 32.9297 89.5898 34.0781C89.9883 35.2266 90.1875 36.5156 90.1875 37.9453V40.3535H74.6484V36.6445H84.4043V36.1875C84.416 35.5547 84.3047 35.0156 84.0703 34.5703C83.8477 34.125 83.5195 33.7852 83.0859 33.5508C82.6523 33.3164 82.125 33.1992 81.5039 33.1992C80.8594 33.1992 80.3262 33.3398 79.9043 33.6211C79.4941 33.9023 79.1719 34.2891 78.9375 34.7812C78.7148 35.2617 78.5566 35.8184 78.4629 36.4512C78.3691 37.084 78.3223 37.752 78.3223 38.4551V39.123C78.3223 39.8262 78.416 40.4648 78.6035 41.0391C78.8027 41.6133 79.084 42.1055 79.4473 42.5156C79.8223 42.9141 80.2676 43.2246 80.7832 43.4473C81.3105 43.6699 81.9082 43.7812 82.5762 43.7812C83.3848 43.7812 84.1816 43.6289 84.9668 43.3242C85.752 43.0195 86.4258 42.5156 86.9883 41.8125L89.6777 45.0117C89.291 45.5625 88.7402 46.0957 88.0254 46.6113C87.3223 47.127 86.4785 47.5488 85.4941 47.877C84.5098 48.1934 83.4082 48.3516 82.1895 48.3516ZM102.475 43.2188V35.3789C102.475 34.8398 102.398 34.377 102.246 33.9902C102.094 33.6035 101.854 33.3047 101.525 33.0938C101.197 32.8711 100.758 32.7598 100.207 32.7598C99.7617 32.7598 99.3809 32.8359 99.0645 32.9883C98.748 33.1406 98.5078 33.3691 98.3438 33.6738C98.1797 33.9785 98.0977 34.3652 98.0977 34.834H92.1738C92.1738 33.9551 92.3672 33.1406 92.7539 32.3906C93.1523 31.6289 93.7148 30.9668 94.4414 30.4043C95.1797 29.8418 96.0586 29.4082 97.0781 29.1035C98.1094 28.7871 99.2578 28.6289 100.523 28.6289C102.035 28.6289 103.383 28.8809 104.566 29.3848C105.762 29.8887 106.705 30.6445 107.396 31.6523C108.088 32.6484 108.434 33.9023 108.434 35.4141V43.2012C108.434 44.4434 108.504 45.3867 108.645 46.0312C108.785 46.6641 108.984 47.2207 109.242 47.7012V48H103.301C103.02 47.4141 102.809 46.6992 102.668 45.8555C102.539 45 102.475 44.1211 102.475 43.2188ZM103.195 36.3809L103.23 39.5449H100.611C100.061 39.5449 99.5918 39.6211 99.2051 39.7734C98.8301 39.9258 98.5254 40.1367 98.291 40.4062C98.0684 40.6641 97.9043 40.957 97.7988 41.2852C97.7051 41.6133 97.6582 41.959 97.6582 42.3223C97.6582 42.6738 97.7402 42.9902 97.9043 43.2715C98.0801 43.541 98.3145 43.752 98.6074 43.9043C98.9004 44.0566 99.2285 44.1328 99.5918 44.1328C100.248 44.1328 100.805 44.0098 101.262 43.7637C101.73 43.5059 102.088 43.1953 102.334 42.832C102.58 42.4688 102.703 42.1289 102.703 41.8125L104.004 44.2383C103.77 44.707 103.5 45.1816 103.195 45.6621C102.902 46.1426 102.533 46.5879 102.088 46.998C101.654 47.3965 101.121 47.7246 100.488 47.9824C99.8555 48.2285 99.0879 48.3516 98.1855 48.3516C97.0137 48.3516 95.9355 48.1113 94.9512 47.6309C93.9785 47.1504 93.1992 46.4824 92.6133 45.627C92.0273 44.7598 91.7344 43.7637 91.7344 42.6387C91.7344 41.6543 91.9102 40.7754 92.2617 40.002C92.625 39.2285 93.1699 38.5723 93.8965 38.0332C94.623 37.4941 95.5488 37.084 96.6738 36.8027C97.7988 36.5215 99.123 36.3809 100.646 36.3809H103.195ZM117.979 21V48H112.037V21H117.979ZM133.939 22.4062H138.967L144.68 40.2129L150.393 22.4062H155.42L146.719 48H142.641L133.939 22.4062ZM130.881 22.4062H136.084L137.051 42.0234V48H130.881V22.4062ZM153.275 22.4062H158.496V48H152.309V42.0234L153.275 22.4062ZM172.049 43.2188V35.3789C172.049 34.8398 171.973 34.377 171.82 33.9902C171.668 33.6035 171.428 33.3047 171.1 33.0938C170.771 32.8711 170.332 32.7598 169.781 32.7598C169.336 32.7598 168.955 32.8359 168.639 32.9883C168.322 33.1406 168.082 33.3691 167.918 33.6738C167.754 33.9785 167.672 34.3652 167.672 34.834H161.748C161.748 33.9551 161.941 33.1406 162.328 32.3906C162.727 31.6289 163.289 30.9668 164.016 30.4043C164.754 29.8418 165.633 29.4082 166.652 29.1035C167.684 28.7871 168.832 28.6289 170.098 28.6289C171.609 28.6289 172.957 28.8809 174.141 29.3848C175.336 29.8887 176.279 30.6445 176.971 31.6523C177.662 32.6484 178.008 33.9023 178.008 35.4141V43.2012C178.008 44.4434 178.078 45.3867 178.219 46.0312C178.359 46.6641 178.559 47.2207 178.816 47.7012V48H172.875C172.594 47.4141 172.383 46.6992 172.242 45.8555C172.113 45 172.049 44.1211 172.049 43.2188ZM172.77 36.3809L172.805 39.5449H170.186C169.635 39.5449 169.166 39.6211 168.779 39.7734C168.404 39.9258 168.1 40.1367 167.865 40.4062C167.643 40.6641 167.479 40.957 167.373 41.2852C167.279 41.6133 167.232 41.959 167.232 42.3223C167.232 42.6738 167.314 42.9902 167.479 43.2715C167.654 43.541 167.889 43.752 168.182 43.9043C168.475 44.0566 168.803 44.1328 169.166 44.1328C169.822 44.1328 170.379 44.0098 170.836 43.7637C171.305 43.5059 171.662 43.1953 171.908 42.832C172.154 42.4688 172.277 42.1289 172.277 41.8125L173.578 44.2383C173.344 44.707 173.074 45.1816 172.77 45.6621C172.477 46.1426 172.107 46.5879 171.662 46.998C171.229 47.3965 170.695 47.7246 170.062 47.9824C169.43 48.2285 168.662 48.3516 167.76 48.3516C166.588 48.3516 165.51 48.1113 164.525 47.6309C163.553 47.1504 162.773 46.4824 162.188 45.627C161.602 44.7598 161.309 43.7637 161.309 42.6387C161.309 41.6543 161.484 40.7754 161.836 40.002C162.199 39.2285 162.744 38.5723 163.471 38.0332C164.197 37.4941 165.123 37.084 166.248 36.8027C167.373 36.5215 168.697 36.3809 170.221 36.3809H172.77ZM187.271 33.6914V48H181.348V28.9805H186.885L187.271 33.6914ZM192.896 28.8398L192.791 34.3418C192.557 34.3184 192.24 34.2891 191.842 34.2539C191.443 34.2188 191.109 34.2012 190.84 34.2012C190.148 34.2012 189.551 34.2832 189.047 34.4473C188.555 34.5996 188.145 34.834 187.816 35.1504C187.5 35.4551 187.266 35.8418 187.113 36.3105C186.973 36.7793 186.908 37.3242 186.92 37.9453L185.848 37.2422C185.848 35.9648 185.971 34.8047 186.217 33.7617C186.475 32.707 186.838 31.7988 187.307 31.0371C187.775 30.2637 188.344 29.6719 189.012 29.2617C189.68 28.8398 190.43 28.6289 191.262 28.6289C191.555 28.6289 191.842 28.6465 192.123 28.6816C192.416 28.7168 192.674 28.7695 192.896 28.8398ZM200.912 20.9824V48H194.988V20.9824H200.912ZM213.076 28.9805L204.814 38.666L200.49 42.9902L197.906 39.2285L201.51 34.5352L205.975 28.9805H213.076ZM206.73 48L201.65 39.334L206.027 36.2227L213.516 48H206.73ZM223.482 48.3516C221.936 48.3516 220.553 48.1113 219.334 47.6309C218.115 47.1387 217.084 46.4648 216.24 45.6094C215.408 44.7539 214.77 43.7695 214.324 42.6562C213.891 41.543 213.674 40.3652 213.674 39.123V38.4551C213.674 37.0605 213.867 35.7715 214.254 34.5879C214.641 33.3926 215.215 32.3496 215.977 31.459C216.738 30.5684 217.693 29.877 218.842 29.3848C219.99 28.8809 221.326 28.6289 222.85 28.6289C224.197 28.6289 225.404 28.8457 226.471 29.2793C227.537 29.7129 228.439 30.334 229.178 31.1426C229.928 31.9512 230.496 32.9297 230.883 34.0781C231.281 35.2266 231.48 36.5156 231.48 37.9453V40.3535H215.941V36.6445H225.697V36.1875C225.709 35.5547 225.598 35.0156 225.363 34.5703C225.141 34.125 224.812 33.7852 224.379 33.5508C223.945 33.3164 223.418 33.1992 222.797 33.1992C222.152 33.1992 221.619 33.3398 221.197 33.6211C220.787 33.9023 220.465 34.2891 220.23 34.7812C220.008 35.2617 219.85 35.8184 219.756 36.4512C219.662 37.084 219.615 37.752 219.615 38.4551V39.123C219.615 39.8262 219.709 40.4648 219.896 41.0391C220.096 41.6133 220.377 42.1055 220.74 42.5156C221.115 42.9141 221.561 43.2246 222.076 43.4473C222.604 43.6699 223.201 43.7812 223.869 43.7812C224.678 43.7812 225.475 43.6289 226.26 43.3242C227.045 43.0195 227.719 42.5156 228.281 41.8125L230.971 45.0117C230.584 45.5625 230.033 46.0957 229.318 46.6113C228.615 47.127 227.771 47.5488 226.787 47.877C225.803 48.1934 224.701 48.3516 223.482 48.3516ZM243.908 28.9805V33.0938H232.447V28.9805H243.908ZM234.855 24.252H240.779V41.7949C240.779 42.2988 240.838 42.6914 240.955 42.9727C241.072 43.2422 241.271 43.4355 241.553 43.5527C241.846 43.6582 242.232 43.7109 242.713 43.7109C243.053 43.7109 243.334 43.7051 243.557 43.6934C243.779 43.6699 243.99 43.6406 244.189 43.6055V47.8418C243.686 48.0059 243.158 48.1289 242.607 48.2109C242.057 48.3047 241.471 48.3516 240.85 48.3516C239.584 48.3516 238.5 48.1523 237.598 47.7539C236.707 47.3555 236.027 46.7285 235.559 45.873C235.09 45.0176 234.855 43.9043 234.855 42.5332V24.252ZM252.24 32.6367V55.3125H246.316V28.9805H251.836L252.24 32.6367ZM263.912 38.2617V38.6309C263.912 40.0137 263.754 41.2969 263.438 42.4805C263.121 43.6641 262.652 44.6953 262.031 45.5742C261.41 46.4531 260.637 47.1387 259.711 47.6309C258.797 48.1113 257.736 48.3516 256.529 48.3516C255.393 48.3516 254.414 48.0996 253.594 47.5957C252.773 47.0918 252.088 46.3945 251.537 45.5039C250.986 44.6133 250.541 43.5938 250.201 42.4453C249.861 41.2969 249.592 40.084 249.393 38.8066V38.332C249.592 36.9609 249.861 35.6895 250.201 34.5176C250.541 33.334 250.986 32.3027 251.537 31.4238C252.088 30.5449 252.768 29.8594 253.576 29.3672C254.396 28.875 255.375 28.6289 256.512 28.6289C257.719 28.6289 258.779 28.8574 259.693 29.3145C260.619 29.7715 261.393 30.4277 262.014 31.2832C262.646 32.127 263.121 33.1406 263.438 34.3242C263.754 35.5078 263.912 36.8203 263.912 38.2617ZM257.988 38.6309V38.2617C257.988 37.5234 257.936 36.8496 257.83 36.2402C257.725 35.6191 257.555 35.0801 257.32 34.623C257.098 34.166 256.799 33.8145 256.424 33.5684C256.049 33.3223 255.586 33.1992 255.035 33.1992C254.402 33.1992 253.869 33.2988 253.436 33.498C253.014 33.6855 252.674 33.9785 252.416 34.377C252.17 34.7637 251.994 35.25 251.889 35.8359C251.795 36.4102 251.754 37.084 251.766 37.8574V39.2988C251.742 40.1895 251.83 40.9746 252.029 41.6543C252.229 42.3223 252.574 42.8438 253.066 43.2188C253.559 43.5938 254.227 43.7812 255.07 43.7812C255.633 43.7812 256.102 43.6523 256.477 43.3945C256.852 43.125 257.15 42.7559 257.373 42.2871C257.596 41.8066 257.754 41.2559 257.848 40.6348C257.941 40.0137 257.988 39.3457 257.988 38.6309ZM272.807 21V48H266.865V21H272.807ZM286.342 43.2188V35.3789C286.342 34.8398 286.266 34.377 286.113 33.9902C285.961 33.6035 285.721 33.3047 285.393 33.0938C285.064 32.8711 284.625 32.7598 284.074 32.7598C283.629 32.7598 283.248 32.8359 282.932 32.9883C282.615 33.1406 282.375 33.3691 282.211 33.6738C282.047 33.9785 281.965 34.3652 281.965 34.834H276.041C276.041 33.9551 276.234 33.1406 276.621 32.3906C277.02 31.6289 277.582 30.9668 278.309 30.4043C279.047 29.8418 279.926 29.4082 280.945 29.1035C281.977 28.7871 283.125 28.6289 284.391 28.6289C285.902 28.6289 287.25 28.8809 288.434 29.3848C289.629 29.8887 290.572 30.6445 291.264 31.6523C291.955 32.6484 292.301 33.9023 292.301 35.4141V43.2012C292.301 44.4434 292.371 45.3867 292.512 46.0312C292.652 46.6641 292.852 47.2207 293.109 47.7012V48H287.168C286.887 47.4141 286.676 46.6992 286.535 45.8555C286.406 45 286.342 44.1211 286.342 43.2188ZM287.062 36.3809L287.098 39.5449H284.479C283.928 39.5449 283.459 39.6211 283.072 39.7734C282.697 39.9258 282.393 40.1367 282.158 40.4062C281.936 40.6641 281.771 40.957 281.666 41.2852C281.572 41.6133 281.525 41.959 281.525 42.3223C281.525 42.6738 281.607 42.9902 281.771 43.2715C281.947 43.541 282.182 43.752 282.475 43.9043C282.768 44.0566 283.096 44.1328 283.459 44.1328C284.115 44.1328 284.672 44.0098 285.129 43.7637C285.598 43.5059 285.955 43.1953 286.201 42.832C286.447 42.4688 286.57 42.1289 286.57 41.8125L287.871 44.2383C287.637 44.707 287.367 45.1816 287.062 45.6621C286.77 46.1426 286.4 46.5879 285.955 46.998C285.521 47.3965 284.988 47.7246 284.355 47.9824C283.723 48.2285 282.955 48.3516 282.053 48.3516C280.881 48.3516 279.803 48.1113 278.818 47.6309C277.846 47.1504 277.066 46.4824 276.48 45.627C275.895 44.7598 275.602 43.7637 275.602 42.6387C275.602 41.6543 275.777 40.7754 276.129 40.002C276.492 39.2285 277.037 38.5723 277.764 38.0332C278.49 37.4941 279.416 37.084 280.541 36.8027C281.666 36.5215 282.99 36.3809 284.514 36.3809H287.062ZM303.621 43.7812C304.172 43.7812 304.641 43.6816 305.027 43.4824C305.426 43.2715 305.725 42.9785 305.924 42.6035C306.135 42.2168 306.234 41.7539 306.223 41.2148H311.795C311.807 42.6445 311.455 43.8984 310.74 44.9766C310.037 46.043 309.076 46.875 307.857 47.4727C306.65 48.0586 305.285 48.3516 303.762 48.3516C302.273 48.3516 300.973 48.1113 299.859 47.6309C298.746 47.1387 297.814 46.459 297.064 45.5918C296.326 44.7129 295.77 43.6875 295.395 42.5156C295.031 41.3438 294.85 40.0723 294.85 38.7012V38.2969C294.85 36.9258 295.031 35.6543 295.395 34.4824C295.77 33.2988 296.326 32.2734 297.064 31.4062C297.814 30.5273 298.74 29.8477 299.842 29.3672C300.955 28.875 302.25 28.6289 303.727 28.6289C305.309 28.6289 306.703 28.9277 307.91 29.5254C309.129 30.123 310.084 30.9902 310.775 32.127C311.467 33.2637 311.807 34.6406 311.795 36.2578H306.223C306.234 35.6836 306.146 35.168 305.959 34.7109C305.771 34.2539 305.479 33.8906 305.08 33.6211C304.693 33.3398 304.195 33.1992 303.586 33.1992C302.977 33.1992 302.484 33.334 302.109 33.6035C301.734 33.873 301.447 34.248 301.248 34.7285C301.061 35.1973 300.932 35.7363 300.861 36.3457C300.803 36.9551 300.773 37.6055 300.773 38.2969V38.7012C300.773 39.4043 300.803 40.0664 300.861 40.6875C300.932 41.2969 301.066 41.8359 301.266 42.3047C301.465 42.7617 301.752 43.125 302.127 43.3945C302.502 43.6523 303 43.7812 303.621 43.7812ZM323.537 48.3516C321.99 48.3516 320.607 48.1113 319.389 47.6309C318.17 47.1387 317.139 46.4648 316.295 45.6094C315.463 44.7539 314.824 43.7695 314.379 42.6562C313.945 41.543 313.729 40.3652 313.729 39.123V38.4551C313.729 37.0605 313.922 35.7715 314.309 34.5879C314.695 33.3926 315.27 32.3496 316.031 31.459C316.793 30.5684 317.748 29.877 318.896 29.3848C320.045 28.8809 321.381 28.6289 322.904 28.6289C324.252 28.6289 325.459 28.8457 326.525 29.2793C327.592 29.7129 328.494 30.334 329.232 31.1426C329.982 31.9512 330.551 32.9297 330.938 34.0781C331.336 35.2266 331.535 36.5156 331.535 37.9453V40.3535H315.996V36.6445H325.752V36.1875C325.764 35.5547 325.652 35.0156 325.418 34.5703C325.195 34.125 324.867 33.7852 324.434 33.5508C324 33.3164 323.473 33.1992 322.852 33.1992C322.207 33.1992 321.674 33.3398 321.252 33.6211C320.842 33.9023 320.52 34.2891 320.285 34.7812C320.062 35.2617 319.904 35.8184 319.811 36.4512C319.717 37.084 319.67 37.752 319.67 38.4551V39.123C319.67 39.8262 319.764 40.4648 319.951 41.0391C320.15 41.6133 320.432 42.1055 320.795 42.5156C321.17 42.9141 321.615 43.2246 322.131 43.4473C322.658 43.6699 323.256 43.7812 323.924 43.7812C324.732 43.7812 325.529 43.6289 326.314 43.3242C327.1 43.0195 327.773 42.5156 328.336 41.8125L331.025 45.0117C330.639 45.5625 330.088 46.0957 329.373 46.6113C328.67 47.127 327.826 47.5488 326.842 47.877C325.857 48.1934 324.756 48.3516 323.537 48.3516Z" fill="black"/>
<rect x="817" y="20" width="61" height="32" rx="16" fill="black" fill-opacity="0.04"/>
<path d="M836.479 39.9268V41H831.208V39.9268H836.479ZM831.475 31.0469V41H830.155V31.0469H831.475ZM835.781 35.3262V36.3994H831.208V35.3262H835.781ZM836.41 31.0469V32.127H831.208V31.0469H836.41ZM839.436 35.1826V41H838.171V33.6035H839.367L839.436 35.1826ZM839.135 37.0215L838.608 37.001C838.613 36.4951 838.688 36.028 838.834 35.5996C838.98 35.1667 839.185 34.7907 839.449 34.4717C839.714 34.1527 840.028 33.9066 840.393 33.7334C840.762 33.5557 841.17 33.4668 841.616 33.4668C841.981 33.4668 842.309 33.5169 842.601 33.6172C842.892 33.7129 843.141 33.8678 843.346 34.082C843.555 34.2962 843.715 34.5742 843.824 34.916C843.934 35.2533 843.988 35.6657 843.988 36.1533V41H842.717V36.1396C842.717 35.7523 842.66 35.4424 842.546 35.21C842.432 34.973 842.266 34.8021 842.047 34.6973C841.828 34.5879 841.559 34.5332 841.24 34.5332C840.926 34.5332 840.639 34.5993 840.379 34.7314C840.124 34.8636 839.903 35.0459 839.716 35.2783C839.534 35.5107 839.39 35.7773 839.285 36.0781C839.185 36.3743 839.135 36.6888 839.135 37.0215Z" fill="black" fill-opacity="0.87"/>
<path fill-rule="evenodd" clip-rule="evenodd" d="M857.75 34.5L861.5 38.25L865.25 34.5H857.75Z" fill="black" fill-opacity="0.6"/>
<rect x="894" y="16" width="1" height="40" fill="black" fill-opacity="0.12"/>
<path fill-rule="evenodd" clip-rule="evenodd" d="M931 46C932.1 46 933 45.1 933 44H929C929 45.1 929.9 46 931 46ZM937 40V35C937 31.93 935.37 29.36 932.5 28.68V28C932.5 27.17 931.83 26.5 931 26.5C930.17 26.5 929.5 27.17 929.5 28V28.68C926.64 29.36 925 31.92 925 35V40L923 42V43H939V42L937 40ZM935 41H927V35C927 32.52 928.51 30.5 931 30.5C933.49 30.5 935 32.52 935 35V41Z" fill="black" fill-opacity="0.87"/>
<rect x="967" y="20" width="169" height="32" rx="16" fill="black"/>
<path d="M985 24L973 36L985 48L997 36L985 24ZM990.398 34.7954L985 40.2115L979.602 34.7954L978.398 36L984.154 41.7563V44.7632L975.4 36.0092L984.154 27.2552V31.4115H985.855V27.246L994.609 36L985.855 44.754V41.7471L991.611 35.9908L990.398 34.7954Z" fill="white"/>
<path d="M985 34.7955L982.306 32.092L981.101 33.3058L985 37.2047L988.908 33.3058L987.703 32.092L985 34.7955Z" fill="white"/>
<path d="M1012.81 31.0469V41H1011.49L1006.47 33.3232V41H1005.16V31.0469H1006.47L1011.51 38.7441V31.0469H1012.81ZM1019.57 39.7354V35.9277C1019.57 35.6361 1019.51 35.3831 1019.39 35.1689C1019.28 34.9502 1019.1 34.7816 1018.87 34.6631C1018.64 34.5446 1018.35 34.4854 1018.01 34.4854C1017.69 34.4854 1017.41 34.54 1017.17 34.6494C1016.93 34.7588 1016.75 34.9023 1016.61 35.0801C1016.48 35.2578 1016.41 35.4492 1016.41 35.6543H1015.15C1015.15 35.39 1015.21 35.1279 1015.35 34.8682C1015.49 34.6084 1015.68 34.3737 1015.94 34.1641C1016.2 33.9499 1016.51 33.7812 1016.87 33.6582C1017.23 33.5306 1017.64 33.4668 1018.09 33.4668C1018.62 33.4668 1019.1 33.5579 1019.51 33.7402C1019.92 33.9225 1020.25 34.1982 1020.48 34.5674C1020.72 34.932 1020.83 35.39 1020.83 35.9414V39.3867C1020.83 39.6328 1020.85 39.8949 1020.9 40.1729C1020.94 40.4508 1021.01 40.6901 1021.09 40.8906V41H1019.77C1019.71 40.8542 1019.66 40.6605 1019.62 40.4189C1019.59 40.1729 1019.57 39.945 1019.57 39.7354ZM1019.79 36.5156L1019.8 37.4043H1018.52C1018.16 37.4043 1017.84 37.4339 1017.56 37.4932C1017.28 37.5479 1017.04 37.6322 1016.85 37.7461C1016.66 37.86 1016.51 38.0036 1016.41 38.1768C1016.31 38.3454 1016.26 38.5436 1016.26 38.7715C1016.26 39.0039 1016.31 39.2158 1016.42 39.4072C1016.52 39.5986 1016.68 39.7513 1016.89 39.8652C1017.1 39.9746 1017.37 40.0293 1017.68 40.0293C1018.06 40.0293 1018.4 39.9473 1018.7 39.7832C1019 39.6191 1019.23 39.4186 1019.41 39.1816C1019.58 38.9447 1019.68 38.7145 1019.69 38.4912L1020.23 39.0996C1020.2 39.291 1020.11 39.5029 1019.97 39.7354C1019.83 39.9678 1019.64 40.1911 1019.41 40.4053C1019.17 40.6149 1018.89 40.7904 1018.57 40.9316C1018.25 41.0684 1017.89 41.1367 1017.49 41.1367C1016.99 41.1367 1016.55 41.0387 1016.17 40.8428C1015.8 40.6468 1015.51 40.3848 1015.3 40.0566C1015.09 39.724 1014.99 39.3525 1014.99 38.9424C1014.99 38.5459 1015.07 38.1973 1015.22 37.8965C1015.38 37.5911 1015.6 37.3382 1015.89 37.1377C1016.18 36.9326 1016.53 36.7777 1016.94 36.6729C1017.35 36.568 1017.81 36.5156 1018.32 36.5156H1019.79ZM1024.33 35.0732V41H1023.06V33.6035H1024.26L1024.33 35.0732ZM1024.07 37.0215L1023.48 37.001C1023.49 36.4951 1023.55 36.028 1023.68 35.5996C1023.81 35.1667 1024 34.7907 1024.25 34.4717C1024.5 34.1527 1024.81 33.9066 1025.19 33.7334C1025.56 33.5557 1025.99 33.4668 1026.48 33.4668C1026.83 33.4668 1027.15 33.5169 1027.44 33.6172C1027.73 33.7129 1027.99 33.8656 1028.2 34.0752C1028.41 34.2848 1028.58 34.5537 1028.7 34.8818C1028.82 35.21 1028.88 35.6064 1028.88 36.0713V41H1027.61V36.1328C1027.61 35.7454 1027.55 35.4355 1027.41 35.2031C1027.29 34.9707 1027.1 34.8021 1026.87 34.6973C1026.63 34.5879 1026.35 34.5332 1026.03 34.5332C1025.66 34.5332 1025.35 34.5993 1025.1 34.7314C1024.85 34.8636 1024.65 35.0459 1024.5 35.2783C1024.34 35.5107 1024.24 35.7773 1024.17 36.0781C1024.1 36.3743 1024.07 36.6888 1024.07 37.0215ZM1028.86 36.3242L1028.02 36.584C1028.02 36.1784 1028.09 35.7887 1028.21 35.415C1028.35 35.0413 1028.54 34.7087 1028.78 34.417C1029.03 34.1253 1029.34 33.8952 1029.7 33.7266C1030.07 33.5534 1030.49 33.4668 1030.96 33.4668C1031.35 33.4668 1031.7 33.5192 1032.01 33.624C1032.32 33.7288 1032.58 33.8906 1032.79 34.1094C1033 34.3236 1033.16 34.5993 1033.27 34.9365C1033.38 35.2738 1033.44 35.6748 1033.44 36.1396V41H1032.17V36.126C1032.17 35.7113 1032.1 35.39 1031.97 35.1621C1031.84 34.9297 1031.66 34.7679 1031.42 34.6768C1031.19 34.5811 1030.91 34.5332 1030.59 34.5332C1030.31 34.5332 1030.06 34.5811 1029.85 34.6768C1029.63 34.7725 1029.45 34.9046 1029.31 35.0732C1029.16 35.2373 1029.05 35.4264 1028.97 35.6406C1028.9 35.8548 1028.86 36.0827 1028.86 36.3242ZM1038.67 41.1367C1038.15 41.1367 1037.69 41.0501 1037.27 40.877C1036.85 40.6992 1036.5 40.4508 1036.2 40.1318C1035.9 39.8128 1035.67 39.4346 1035.51 38.9971C1035.35 38.5596 1035.27 38.0811 1035.27 37.5615V37.2744C1035.27 36.6729 1035.36 36.1374 1035.54 35.668C1035.72 35.194 1035.96 34.793 1036.26 34.4648C1036.57 34.1367 1036.92 33.8883 1037.3 33.7197C1037.69 33.5511 1038.09 33.4668 1038.51 33.4668C1039.03 33.4668 1039.49 33.5579 1039.87 33.7402C1040.26 33.9225 1040.58 34.1777 1040.82 34.5059C1041.07 34.8294 1041.25 35.2122 1041.37 35.6543C1041.49 36.0918 1041.55 36.5703 1041.55 37.0898V37.6572H1036.02V36.625H1040.28V36.5293C1040.26 36.2012 1040.2 35.8822 1040.08 35.5723C1039.96 35.2624 1039.78 35.0072 1039.53 34.8066C1039.28 34.6061 1038.94 34.5059 1038.51 34.5059C1038.22 34.5059 1037.95 34.5674 1037.71 34.6904C1037.47 34.8089 1037.26 34.9867 1037.09 35.2236C1036.92 35.4606 1036.78 35.75 1036.69 36.0918C1036.59 36.4336 1036.54 36.8278 1036.54 37.2744V37.5615C1036.54 37.9124 1036.59 38.2428 1036.69 38.5527C1036.79 38.8581 1036.93 39.127 1037.12 39.3594C1037.31 39.5918 1037.54 39.7741 1037.81 39.9062C1038.08 40.0384 1038.39 40.1045 1038.74 40.1045C1039.18 40.1045 1039.56 40.0133 1039.87 39.8311C1040.18 39.6488 1040.45 39.4049 1040.69 39.0996L1041.45 39.708C1041.29 39.9495 1041.09 40.1797 1040.84 40.3984C1040.6 40.6172 1040.29 40.7949 1039.93 40.9316C1039.58 41.0684 1039.16 41.1367 1038.67 41.1367ZM1052.49 38.4844C1052.49 38.252 1052.46 38.0469 1052.38 37.8691C1052.32 37.6868 1052.19 37.5228 1052.01 37.377C1051.84 37.2311 1051.6 37.0921 1051.29 36.96C1050.98 36.8278 1050.6 36.6934 1050.13 36.5566C1049.64 36.4108 1049.19 36.249 1048.79 36.0713C1048.4 35.889 1048.06 35.6816 1047.78 35.4492C1047.49 35.2168 1047.28 34.9502 1047.13 34.6494C1046.98 34.3486 1046.9 34.0046 1046.9 33.6172C1046.9 33.2298 1046.98 32.8721 1047.14 32.5439C1047.3 32.2158 1047.53 31.931 1047.82 31.6895C1048.12 31.4434 1048.48 31.252 1048.9 31.1152C1049.31 30.9785 1049.77 30.9102 1050.29 30.9102C1051.03 30.9102 1051.67 31.0537 1052.19 31.3408C1052.71 31.6234 1053.11 31.9948 1053.38 32.4551C1053.66 32.9108 1053.79 33.3984 1053.79 33.918H1052.48C1052.48 33.5443 1052.4 33.2139 1052.24 32.9268C1052.08 32.6351 1051.84 32.4072 1051.52 32.2432C1051.19 32.0745 1050.78 31.9902 1050.29 31.9902C1049.82 31.9902 1049.43 32.0609 1049.12 32.2021C1048.82 32.3434 1048.59 32.5348 1048.44 32.7764C1048.29 33.0179 1048.22 33.2936 1048.22 33.6035C1048.22 33.8132 1048.26 34.0046 1048.35 34.1777C1048.44 34.3464 1048.58 34.5036 1048.77 34.6494C1048.96 34.7952 1049.2 34.9297 1049.49 35.0527C1049.79 35.1758 1050.14 35.2943 1050.55 35.4082C1051.12 35.5677 1051.6 35.7454 1052.01 35.9414C1052.42 36.1374 1052.76 36.3584 1053.03 36.6045C1053.3 36.846 1053.49 37.1217 1053.62 37.4316C1053.75 37.737 1053.82 38.0833 1053.82 38.4707C1053.82 38.8763 1053.74 39.2432 1053.57 39.5713C1053.41 39.8994 1053.17 40.1797 1052.87 40.4121C1052.56 40.6445 1052.2 40.8245 1051.77 40.9521C1051.34 41.0752 1050.87 41.1367 1050.35 41.1367C1049.89 41.1367 1049.43 41.0729 1048.99 40.9453C1048.54 40.8177 1048.14 40.6263 1047.78 40.3711C1047.42 40.1159 1047.13 39.8014 1046.91 39.4277C1046.69 39.0495 1046.59 38.612 1046.59 38.1152H1047.9C1047.9 38.457 1047.97 38.751 1048.1 38.9971C1048.23 39.2386 1048.41 39.4391 1048.64 39.5986C1048.87 39.7581 1049.13 39.8766 1049.42 39.9541C1049.72 40.027 1050.03 40.0635 1050.35 40.0635C1050.81 40.0635 1051.2 39.9997 1051.52 39.8721C1051.83 39.7445 1052.08 39.5622 1052.24 39.3252C1052.41 39.0882 1052.49 38.8079 1052.49 38.4844ZM1060.08 39.291V33.6035H1061.36V41H1060.15L1060.08 39.291ZM1060.32 37.7324L1060.85 37.7188C1060.85 38.2109 1060.8 38.6667 1060.69 39.0859C1060.59 39.5007 1060.43 39.8607 1060.2 40.166C1059.97 40.4714 1059.67 40.7106 1059.31 40.8838C1058.94 41.0524 1058.49 41.1367 1057.96 41.1367C1057.6 41.1367 1057.27 41.0843 1056.97 40.9795C1056.67 40.8747 1056.42 40.7129 1056.2 40.4941C1055.99 40.2754 1055.82 39.9906 1055.7 39.6396C1055.59 39.2887 1055.53 38.8672 1055.53 38.375V33.6035H1056.8V38.3887C1056.8 38.7214 1056.83 38.9971 1056.91 39.2158C1056.98 39.43 1057.09 39.6009 1057.21 39.7285C1057.35 39.8516 1057.49 39.9382 1057.65 39.9883C1057.82 40.0384 1057.98 40.0635 1058.16 40.0635C1058.69 40.0635 1059.12 39.9609 1059.44 39.7559C1059.75 39.5462 1059.98 39.266 1060.11 38.915C1060.25 38.5596 1060.32 38.1654 1060.32 37.7324ZM1064.8 34.7656V41H1063.53V33.6035H1064.76L1064.8 34.7656ZM1067.11 33.5625L1067.1 34.7383C1067 34.7155 1066.9 34.7018 1066.8 34.6973C1066.71 34.6882 1066.61 34.6836 1066.49 34.6836C1066.2 34.6836 1065.94 34.7292 1065.71 34.8203C1065.49 34.9115 1065.3 35.0391 1065.15 35.2031C1064.99 35.3672 1064.87 35.5632 1064.78 35.791C1064.69 36.0143 1064.63 36.2604 1064.61 36.5293L1064.25 36.7344C1064.25 36.2878 1064.3 35.8685 1064.38 35.4766C1064.47 35.0846 1064.61 34.7383 1064.8 34.4375C1064.99 34.1322 1065.22 33.8952 1065.51 33.7266C1065.8 33.5534 1066.15 33.4668 1066.55 33.4668C1066.64 33.4668 1066.74 33.4782 1066.86 33.501C1066.98 33.5192 1067.06 33.5397 1067.11 33.5625ZM1069.79 35.1826V41H1068.53V33.6035H1069.72L1069.79 35.1826ZM1069.49 37.0215L1068.97 37.001C1068.97 36.4951 1069.05 36.028 1069.19 35.5996C1069.34 35.1667 1069.54 34.7907 1069.81 34.4717C1070.07 34.1527 1070.39 33.9066 1070.75 33.7334C1071.12 33.5557 1071.53 33.4668 1071.97 33.4668C1072.34 33.4668 1072.67 33.5169 1072.96 33.6172C1073.25 33.7129 1073.5 33.8678 1073.7 34.082C1073.91 34.2962 1074.07 34.5742 1074.18 34.916C1074.29 35.2533 1074.35 35.6657 1074.35 36.1533V41H1073.07V36.1396C1073.07 35.7523 1073.02 35.4424 1072.9 35.21C1072.79 34.973 1072.62 34.8021 1072.4 34.6973C1072.19 34.5879 1071.92 34.5332 1071.6 34.5332C1071.28 34.5332 1071 34.5993 1070.74 34.7314C1070.48 34.8636 1070.26 35.0459 1070.07 35.2783C1069.89 35.5107 1069.75 35.7773 1069.64 36.0781C1069.54 36.3743 1069.49 36.6888 1069.49 37.0215ZM1080.88 39.7354V35.9277C1080.88 35.6361 1080.82 35.3831 1080.7 35.1689C1080.59 34.9502 1080.41 34.7816 1080.18 34.6631C1079.95 34.5446 1079.66 34.4854 1079.32 34.4854C1079 34.4854 1078.72 34.54 1078.48 34.6494C1078.24 34.7588 1078.05 34.9023 1077.92 35.0801C1077.79 35.2578 1077.72 35.4492 1077.72 35.6543H1076.46C1076.46 35.39 1076.52 35.1279 1076.66 34.8682C1076.8 34.6084 1076.99 34.3737 1077.25 34.1641C1077.51 33.9499 1077.82 33.7812 1078.18 33.6582C1078.54 33.5306 1078.95 33.4668 1079.39 33.4668C1079.93 33.4668 1080.41 33.5579 1080.82 33.7402C1081.23 33.9225 1081.55 34.1982 1081.79 34.5674C1082.02 34.932 1082.14 35.39 1082.14 35.9414V39.3867C1082.14 39.6328 1082.16 39.8949 1082.2 40.1729C1082.25 40.4508 1082.32 40.6901 1082.4 40.8906V41H1081.08C1081.02 40.8542 1080.97 40.6605 1080.93 40.4189C1080.9 40.1729 1080.88 39.945 1080.88 39.7354ZM1081.1 36.5156L1081.11 37.4043H1079.83C1079.47 37.4043 1079.15 37.4339 1078.87 37.4932C1078.59 37.5479 1078.35 37.6322 1078.16 37.7461C1077.97 37.86 1077.82 38.0036 1077.72 38.1768C1077.62 38.3454 1077.57 38.5436 1077.57 38.7715C1077.57 39.0039 1077.62 39.2158 1077.73 39.4072C1077.83 39.5986 1077.99 39.7513 1078.2 39.8652C1078.41 39.9746 1078.67 40.0293 1078.98 40.0293C1079.37 40.0293 1079.71 39.9473 1080.01 39.7832C1080.31 39.6191 1080.54 39.4186 1080.71 39.1816C1080.89 38.9447 1080.99 38.7145 1081 38.4912L1081.54 39.0996C1081.51 39.291 1081.42 39.5029 1081.28 39.7354C1081.14 39.9678 1080.95 40.1911 1080.71 40.4053C1080.48 40.6149 1080.2 40.7904 1079.88 40.9316C1079.56 41.0684 1079.2 41.1367 1078.8 41.1367C1078.3 41.1367 1077.86 41.0387 1077.48 40.8428C1077.11 40.6468 1076.82 40.3848 1076.61 40.0566C1076.4 39.724 1076.3 39.3525 1076.3 38.9424C1076.3 38.5459 1076.38 38.1973 1076.53 37.8965C1076.69 37.5911 1076.91 37.3382 1077.2 37.1377C1077.49 36.9326 1077.84 36.7777 1078.25 36.6729C1078.66 36.568 1079.12 36.5156 1079.63 36.5156H1081.1ZM1085.64 35.0732V41H1084.37V33.6035H1085.57L1085.64 35.0732ZM1085.38 37.0215L1084.79 37.001C1084.8 36.4951 1084.86 36.028 1084.99 35.5996C1085.12 35.1667 1085.31 34.7907 1085.56 34.4717C1085.81 34.1527 1086.12 33.9066 1086.49 33.7334C1086.87 33.5557 1087.3 33.4668 1087.79 33.4668C1088.14 33.4668 1088.46 33.5169 1088.75 33.6172C1089.04 33.7129 1089.29 33.8656 1089.51 34.0752C1089.72 34.2848 1089.89 34.5537 1090.01 34.8818C1090.13 35.21 1090.19 35.6064 1090.19 36.0713V41H1088.92V36.1328C1088.92 35.7454 1088.85 35.4355 1088.72 35.2031C1088.6 34.9707 1088.41 34.8021 1088.18 34.6973C1087.94 34.5879 1087.66 34.5332 1087.34 34.5332C1086.97 34.5332 1086.66 34.5993 1086.41 34.7314C1086.15 34.8636 1085.95 35.0459 1085.8 35.2783C1085.65 35.5107 1085.54 35.7773 1085.48 36.0781C1085.41 36.3743 1085.38 36.6888 1085.38 37.0215ZM1090.17 36.3242L1089.32 36.584C1089.33 36.1784 1089.39 35.7887 1089.52 35.415C1089.65 35.0413 1089.84 34.7087 1090.09 34.417C1090.34 34.1253 1090.65 33.8952 1091.01 33.7266C1091.38 33.5534 1091.79 33.4668 1092.26 33.4668C1092.66 33.4668 1093.01 33.5192 1093.32 33.624C1093.63 33.7288 1093.89 33.8906 1094.1 34.1094C1094.31 34.3236 1094.47 34.5993 1094.58 34.9365C1094.69 35.2738 1094.75 35.6748 1094.75 36.1396V41H1093.47V36.126C1093.47 35.7113 1093.41 35.39 1093.28 35.1621C1093.15 34.9297 1092.97 34.7679 1092.73 34.6768C1092.5 34.5811 1092.22 34.5332 1091.89 34.5332C1091.62 34.5332 1091.37 34.5811 1091.16 34.6768C1090.94 34.7725 1090.76 34.9046 1090.62 35.0732C1090.47 35.2373 1090.36 35.4264 1090.28 35.6406C1090.21 35.8548 1090.17 36.0827 1090.17 36.3242ZM1099.98 41.1367C1099.46 41.1367 1099 41.0501 1098.58 40.877C1098.16 40.6992 1097.8 40.4508 1097.5 40.1318C1097.21 39.8128 1096.98 39.4346 1096.82 38.9971C1096.66 38.5596 1096.58 38.0811 1096.58 37.5615V37.2744C1096.58 36.6729 1096.67 36.1374 1096.85 35.668C1097.03 35.194 1097.27 34.793 1097.57 34.4648C1097.88 34.1367 1098.22 33.8883 1098.61 33.7197C1099 33.5511 1099.4 33.4668 1099.81 33.4668C1100.34 33.4668 1100.8 33.5579 1101.18 33.7402C1101.57 33.9225 1101.89 34.1777 1102.13 34.5059C1102.38 34.8294 1102.56 35.2122 1102.68 35.6543C1102.8 36.0918 1102.86 36.5703 1102.86 37.0898V37.6572H1097.33V36.625H1101.59V36.5293C1101.57 36.2012 1101.51 35.8822 1101.39 35.5723C1101.27 35.2624 1101.09 35.0072 1100.84 34.8066C1100.59 34.6061 1100.25 34.5059 1099.81 34.5059C1099.53 34.5059 1099.26 34.5674 1099.02 34.6904C1098.78 34.8089 1098.57 34.9867 1098.4 35.2236C1098.23 35.4606 1098.09 35.75 1098 36.0918C1097.9 36.4336 1097.85 36.8278 1097.85 37.2744V37.5615C1097.85 37.9124 1097.9 38.2428 1098 38.5527C1098.1 38.8581 1098.24 39.127 1098.43 39.3594C1098.62 39.5918 1098.85 39.7741 1099.12 39.9062C1099.39 40.0384 1099.7 40.1045 1100.05 40.1045C1100.49 40.1045 1100.87 40.0133 1101.18 39.8311C1101.49 39.6488 1101.76 39.4049 1102 39.0996L1102.76 39.708C1102.6 39.9495 1102.4 40.1797 1102.15 40.3984C1101.91 40.6172 1101.6 40.7949 1101.24 40.9316C1100.89 41.0684 1100.47 41.1367 1099.98 41.1367Z" fill="white"/>
<path fill-rule="evenodd" clip-rule="evenodd" d="M1115.75 34.5L1119.5 38.25L1123.25 34.5H1115.75Z" fill="white"/>
</svg>
