<svg width="18" height="18" viewBox="0 0 18 18" fill="none" xmlns="http://www.w3.org/2000/svg">
<path fill-rule="evenodd" clip-rule="evenodd" d="M14.0713 12.375H13.182L12.8668 12.0712C13.97 10.7887 14.6341 9.12375 14.6341 7.3125C14.6341 3.27375 11.3583 0 7.31707 0C3.2758 0 0 3.27375 0 7.3125C0 11.3512 3.2758 14.625 7.31707 14.625C9.12946 14.625 10.7955 13.9613 12.0788 12.8588L12.3827 13.1737V14.0625L15.4834 17.1612C15.947 17.6245 16.6984 17.6245 17.162 17.1612C17.6251 16.6984 17.6262 15.948 17.1644 15.4839L14.0713 12.375ZM7.31707 12.375C4.51407 12.375 2.25141 10.1137 2.25141 7.3125C2.25141 4.51125 4.51407 2.25 7.31707 2.25C10.1201 2.25 12.3827 4.51125 12.3827 7.3125C12.3827 10.1137 10.1201 12.375 7.31707 12.375Z" fill="black" fill-opacity="0.87"/>
</svg>
