<svg width="86" height="16" viewBox="0 0 86 16" fill="none" xmlns="http://www.w3.org/2000/svg">
<path d="M0.5625 4.08068H4.33673V14.9294H7.76869V4.08068H11.5337V1.48622H0.5625V4.08068Z" fill="black"/>
<path d="M11.8944 14.9294H15.2339V9.2696C15.4004 8.88797 15.6533 8.5802 15.9925 8.3463C16.3316 8.10625 16.6924 7.98622 17.0748 7.98622C17.2351 7.98622 17.38 7.99545 17.5095 8.01392C17.6452 8.03238 17.7686 8.057 17.8796 8.08778V5.42869C17.8241 5.40407 17.7254 5.37637 17.5835 5.34559C17.4479 5.31482 17.306 5.29943 17.158 5.29943C16.7448 5.29943 16.3656 5.42561 16.0202 5.67798C15.6748 5.92419 15.4035 6.2258 15.2062 6.58281H15.1692L15.1321 5.53025H11.8944V14.9294Z" fill="black"/>
<path d="M18.3606 12.178C18.3606 13.1567 18.6689 13.8892 19.2857 14.3754C19.9024 14.8555 20.6887 15.0956 21.6445 15.0956C22.4401 15.0956 23.1061 14.9571 23.6427 14.6801C24.1854 14.4031 24.5461 14.0954 24.725 13.7568C24.7497 13.9661 24.7867 14.1785 24.836 14.3939C24.8915 14.6093 24.9593 14.7878 25.0395 14.9294H28.305V14.7909C28.1816 14.5508 28.0829 14.2615 28.0089 13.923C27.9349 13.5783 27.8979 13.2182 27.8979 12.8428V8.56789C27.8979 7.42916 27.5187 6.59512 26.7601 6.06576C26.0016 5.53025 24.9254 5.2625 23.5317 5.2625C22.1502 5.2625 21.0309 5.53948 20.1737 6.09346C19.3165 6.64744 18.8879 7.37376 18.8879 8.27244V8.4571H22.0608V8.28167C22.0608 7.99237 22.1595 7.75847 22.3568 7.57997C22.5604 7.39531 22.8903 7.30298 23.3467 7.30298C23.8092 7.30298 24.133 7.41377 24.318 7.63536C24.503 7.8508 24.5955 8.14318 24.5955 8.5125V9.00184H22.6899C21.4318 9.00184 20.3957 9.2696 19.5817 9.80511C18.7676 10.3345 18.3606 11.1254 18.3606 12.178ZM21.663 11.8825C21.663 11.507 21.8018 11.227 22.0793 11.0423C22.3568 10.8577 22.7885 10.7653 23.3744 10.7653H24.5955V11.4763C24.5955 11.9256 24.4413 12.3042 24.133 12.6119C23.8246 12.9197 23.4268 13.0736 22.9396 13.0736C22.5018 13.0736 22.178 12.9659 21.9683 12.7504C21.7648 12.5288 21.663 12.2395 21.663 11.8825Z" fill="black"/>
<path d="M29.526 10.3776C29.526 11.7748 29.893 12.9135 30.6269 13.7937C31.3607 14.674 32.3721 15.1141 33.661 15.1141C34.2654 15.1141 34.7989 14.991 35.2614 14.7447C35.7239 14.4985 36.06 14.1877 36.2697 13.8122H36.3067L36.3437 14.9294H39.5259V0.987638H36.2419V6.48125C36.0076 6.1427 35.6684 5.86879 35.2244 5.65951C34.7804 5.45023 34.2562 5.34559 33.6518 5.34559C32.4307 5.34559 31.4378 5.7857 30.6731 6.6659C29.9084 7.53996 29.526 8.67869 29.526 10.0821V10.3776ZM32.8932 10.4883V9.9713C32.8932 9.28806 33.0413 8.74024 33.3373 8.32784C33.6333 7.91543 34.0588 7.70923 34.6138 7.70923C35.0332 7.70923 35.3724 7.81387 35.6314 8.02315C35.8966 8.23243 36.0909 8.49095 36.2142 8.79872V11.6517C36.0785 11.9533 35.875 12.2118 35.6037 12.4273C35.3323 12.6427 34.9993 12.7504 34.6046 12.7504C34.0434 12.7504 33.6179 12.5442 33.328 12.1318C33.0382 11.7194 32.8932 11.1716 32.8932 10.4883Z" fill="black"/>
<path d="M41.0892 10.3591C41.0892 11.8364 41.5518 13.012 42.4768 13.8861C43.4081 14.7601 44.6816 15.1972 46.2973 15.1972C47.4012 15.1972 48.3294 14.9971 49.0817 14.597C49.8403 14.1908 50.3737 13.6368 50.6821 12.9351L48.1659 11.744C47.9748 12.0456 47.7157 12.3072 47.3889 12.5288C47.0682 12.7504 46.6858 12.8612 46.2418 12.8612C45.6374 12.8612 45.1749 12.6581 44.8542 12.2518C44.5335 11.8456 44.3732 11.2639 44.3732 10.5068V9.85127C44.3732 9.11264 44.5181 8.54327 44.808 8.14318C45.104 7.73693 45.5295 7.5338 46.0846 7.5338C46.5779 7.5338 46.9572 7.68153 47.2224 7.97698C47.4876 8.26628 47.6171 8.62945 47.6109 9.06647V9.2419H43.2076V10.9131H50.8486V9.92514C50.8486 8.46633 50.4292 7.32144 49.5905 6.49048C48.7518 5.65951 47.5955 5.24403 46.1216 5.24403C44.6415 5.24403 43.4327 5.68106 42.4953 6.55511C41.5579 7.42916 41.0892 8.59867 41.0892 10.0636V10.3591Z" fill="black"/>
<path d="M52.2917 14.9294H55.6126V0.987638H52.2917V14.9294Z" fill="black"/>
<path d="M57.1852 10.3591C57.1852 11.8364 57.6478 13.012 58.5728 13.8861C59.504 14.7601 60.7775 15.1972 62.3933 15.1972C63.4972 15.1972 64.4254 14.9971 65.1777 14.597C65.9363 14.1908 66.4697 13.6368 66.7781 12.9351L64.2619 11.744C64.0707 12.0456 63.8117 12.3072 63.4849 12.5288C63.1642 12.7504 62.7818 12.8612 62.3378 12.8612C61.7334 12.8612 61.2709 12.6581 60.9502 12.2518C60.6295 11.8456 60.4692 11.2639 60.4692 10.5068V9.85127C60.4692 9.11264 60.6141 8.54327 60.904 8.14318C61.2 7.73693 61.6255 7.5338 62.1805 7.5338C62.6739 7.5338 63.0532 7.68153 63.3184 7.97698C63.5835 8.26628 63.7131 8.62945 63.7069 9.06647V9.2419H59.3036V10.9131H66.9446V9.92514C66.9446 8.46633 66.5252 7.32144 65.6865 6.49048C64.8478 5.65951 63.6915 5.24403 62.2175 5.24403C60.7375 5.24403 59.5287 5.68106 58.5913 6.55511C57.6539 7.42916 57.1852 8.59867 57.1852 10.0636V10.3591Z" fill="black"/>
<path d="M67.9436 12.178C67.9436 13.1567 68.252 13.8892 68.8687 14.3754C69.4854 14.8555 70.2717 15.0956 71.2276 15.0956C72.0232 15.0956 72.6892 14.9571 73.2257 14.6801C73.7684 14.4031 74.1292 14.0954 74.308 13.7568C74.3327 13.9661 74.3697 14.1785 74.4191 14.3939C74.4746 14.6093 74.5424 14.7878 74.6226 14.9294H77.888V14.7909C77.7647 14.5508 77.666 14.2615 77.592 13.923C77.518 13.5783 77.481 13.2182 77.481 12.8428V8.56789C77.481 7.42916 77.1017 6.59512 76.3432 6.06576C75.5846 5.53025 74.5085 5.2625 73.1147 5.2625C71.7333 5.2625 70.614 5.53948 69.7568 6.09346C68.8995 6.64744 68.4709 7.37376 68.4709 8.27244V8.4571H71.6439V8.28167C71.6439 7.99237 71.7426 7.75847 71.9399 7.57997C72.1434 7.39531 72.4734 7.30298 72.9297 7.30298C73.3922 7.30298 73.716 7.41377 73.901 7.63536C74.086 7.8508 74.1785 8.14318 74.1785 8.5125V9.00184H72.2729C71.0148 9.00184 69.9788 9.2696 69.1647 9.80511C68.3507 10.3345 67.9436 11.1254 67.9436 12.178ZM71.2461 11.8825C71.2461 11.507 71.3849 11.227 71.6624 11.0423C71.9399 10.8577 72.3716 10.7653 72.9575 10.7653H74.1785V11.4763C74.1785 11.9256 74.0244 12.3042 73.716 12.6119C73.4077 12.9197 73.0099 13.0736 72.5227 13.0736C72.0848 13.0736 71.7611 12.9659 71.5514 12.7504C71.3479 12.5288 71.2461 12.2395 71.2461 11.8825Z" fill="black"/>
<path d="M79.9416 14.9294H83.2348V6.52741L83.2163 6.35198V4.95781C83.2163 4.37305 83.3304 3.93911 83.5586 3.65596C83.793 3.37282 84.1136 3.23125 84.5207 3.23125C84.681 3.23125 84.8229 3.24048 84.9462 3.25894C85.0695 3.27741 85.1867 3.29895 85.2977 3.32358L85.3995 0.959939C85.2021 0.904541 84.9894 0.864532 84.7612 0.83991C84.533 0.815289 84.2771 0.802979 83.9934 0.802979C82.8278 0.802979 81.8596 1.12921 81.0887 1.78167C80.324 2.43413 79.9416 3.4159 79.9416 4.72698V14.9294ZM78.7206 7.89389H84.8537V5.53025H78.7206V7.89389Z" fill="black"/>
</svg>
