<svg width="72" height="72" viewBox="0 0 72 72" fill="none" xmlns="http://www.w3.org/2000/svg">
<path fill-rule="evenodd" clip-rule="evenodd" d="M25.5 3C13.0736 3 3 13.0736 3 25.5C3 37.9264 13.0736 48 25.5 48C37.9264 48 48 37.9264 48 25.5C48 13.0736 37.9264 3 25.5 3ZM0 25.5C0 11.4167 11.4167 0 25.5 0C39.5833 0 51 11.4167 51 25.5C51 30.3672 49.6364 34.916 47.2703 38.785L51.9853 43.5C53.0913 43.2825 54.2819 43.6022 55.1389 44.4591L70.8493 60.1695C72.2161 61.5364 72.2161 63.7524 70.8493 65.1193L65.4616 70.507C64.0948 71.8738 61.8787 71.8738 60.5119 70.507L44.8014 54.7965C44.1028 54.098 43.7613 53.1776 43.7768 52.2621L38.785 47.2703C34.916 49.6364 30.3672 51 25.5 51C11.4167 51 0 39.5833 0 25.5ZM41.2854 45.5281C42.8603 44.2851 44.2851 42.8603 45.5281 41.2854L49.3049 45.0623L45.0623 49.3049L41.2854 45.5281ZM25.5 9C16.3873 9 9 16.3873 9 25.5C9 34.6127 16.3873 42 25.5 42C34.6127 42 42 34.6127 42 25.5C42 16.3873 34.6127 9 25.5 9ZM6 25.5C6 14.7304 14.7304 6 25.5 6C36.2696 6 45 14.7304 45 25.5C45 36.2696 36.2696 45 25.5 45C14.7304 45 6 36.2696 6 25.5ZM15.0703 24.2866C15.1661 23.4637 14.5766 22.7191 13.7537 22.6233C12.9309 22.5276 12.1862 23.1171 12.0904 23.9399C11.8521 25.989 12.0864 28.0655 12.7756 30.0099C13.4647 31.9543 14.5903 33.7149 16.0659 35.1565C17.5415 36.5981 19.3278 37.6824 21.2877 38.326C23.2477 38.9697 25.329 39.1556 27.372 38.8696C28.1924 38.7547 28.7644 37.9965 28.6495 37.1761C28.5346 36.3557 27.7764 35.7837 26.956 35.8986C25.367 36.1211 23.7482 35.9764 22.2238 35.4758C20.6994 34.9752 19.31 34.1319 18.1624 33.0106C17.0147 31.8893 16.1392 30.52 15.6032 29.0077C15.0672 27.4954 14.8849 25.8803 15.0703 24.2866ZM46.9227 52.6752C46.7275 52.4799 46.7275 52.1634 46.9227 51.9681L52.3104 46.5804C52.5057 46.3851 52.8223 46.3851 53.0175 46.5804L68.728 62.2909C68.9232 62.4861 68.9233 62.8027 68.728 62.998L63.3403 68.3857C63.145 68.5809 62.8284 68.5809 62.6332 68.3857L46.9227 52.6752Z" fill="black"/>
</svg>
